<?xml version="1.0" encoding="iso-8859-1"?>
<!-- Generator: Adobe Illustrator 21.0.0, SVG Export Plug-In . SVG Version: 6.00 Build 0)  -->
<svg version="1.1" id="Capa_1" xmlns="http://www.w3.org/2000/svg" xmlns:xlink="http://www.w3.org/1999/xlink" x="0px" y="0px"
	 viewBox="0 0 512 512" style="enable-background:new 0 0 512 512;" xml:space="preserve">
<path style="fill:#A7E2EE;" d="M124.15,152.869H45.655c-7.7,0-14-6.3-14-14V93.373c0-7.7,6.3-14,14-14h78.495c7.7,0,14,6.3,14,14
	v45.496C138.15,146.569,131.85,152.869,124.15,152.869z"/>
<path style="fill:#6CCEE3;" d="M124.15,79.373h-24c7.7,0,14,6.3,14,14v45.497c0,7.7-6.3,14-14,14h24c7.7,0,14-6.3,14-14V93.373
	C138.15,85.673,131.85,79.373,124.15,79.373z"/>
<path style="fill:#A7E2EE;" d="M287.452,138.271h-62.903c-6.171,0-11.219-5.049-11.219-11.219v-36.46
	c0-6.171,5.049-11.219,11.219-11.219h62.903c6.171,0,11.219,5.049,11.219,11.219v36.459
	C298.671,133.222,293.622,138.271,287.452,138.271z"/>
<path style="fill:#6CCEE3;" d="M287.452,79.373h-23c6.171,0,11.219,5.049,11.219,11.219v36.459c0,6.17-5.049,11.219-11.219,11.219
	h23c6.171,0,11.219-5.049,11.219-11.219V90.592C298.671,84.422,293.622,79.373,287.452,79.373z"/>
<rect x="7.5" y="116.63" style="fill:#A7E2EE;" width="497" height="316"/>
<rect x="481.5" y="116.63" style="fill:#6CCEE3;" width="23" height="316"/>
<rect x="7.5" y="116.63" style="fill:#AE5FE5;" width="497" height="58.667"/>
<rect x="481.5" y="116.63" style="fill:#9649EC;" width="23" height="58.667"/>
<rect x="7.5" y="387.96" style="fill:#AE5FE5;" width="497" height="44.667"/>
<rect x="481.5" y="387.63" style="fill:#9649EC;" width="23" height="44.667"/>
<rect x="355.1" y="116.63" style="fill:#FFF4F1;" width="108.56" height="58.667"/>
<g>
	<rect x="438.67" y="116.63" style="fill:#D0CFD1;" width="25" height="58.667"/>
	<circle style="fill:#D0CFD1;" cx="251.67" cy="280.63" r="129.47"/>
</g>
<path style="fill:#9C9B9D;" d="M251.667,151.156c-3.876,0-7.71,0.18-11.5,0.514c66.116,5.821,117.971,61.328,117.971,128.957
	s-51.854,123.136-117.971,128.957c3.79,0.333,7.624,0.514,11.5,0.514c71.505,0,129.471-57.966,129.471-129.471
	S323.171,151.156,251.667,151.156z"/>
<circle style="fill:#FFF4F1;" cx="251.67" cy="280.63" r="78.64"/>
<path style="fill:#D0CFD1;" d="M307.274,225.02c-18.289-18.289-43.344-25.682-67.107-22.188
	c16.141,2.373,31.685,9.766,44.107,22.188c30.711,30.711,30.711,80.504,0,111.215c-12.422,12.422-27.967,19.815-44.107,22.188
	c23.763,3.494,48.819-3.899,67.107-22.188C337.985,305.523,337.985,255.731,307.274,225.02z"/>
<g>
	<path style="fill:#18191B;" d="M504.5,109.127H306.171V90.592c0-10.322-8.397-18.719-18.719-18.719h-62.903
		c-10.322,0-18.719,8.397-18.719,18.719v18.535h-60.18V93.373c0-11.855-9.645-21.5-21.5-21.5H45.655c-11.855,0-21.5,9.645-21.5,21.5
		v15.754H7.5c-4.142,0-7.5,3.358-7.5,7.5v58.667v49.333c0,4.142,3.358,7.5,7.5,7.5s7.5-3.358,7.5-7.5v-41.833h140.91
		c-25.414,24.88-41.214,59.543-41.214,97.833c0,15.101,2.462,29.635,6.996,43.231H15v-64.231c0-4.142-3.358-7.5-7.5-7.5
		s-7.5,3.358-7.5,7.5V387.96v44.667c0,4.142,3.358,7.5,7.5,7.5h497c4.142,0,7.5-3.358,7.5-7.5V387.96v-70.229
		c0-4.142-3.358-7.5-7.5-7.5s-7.5,3.358-7.5,7.5v62.729H345.339c26.633-25.004,43.298-60.507,43.298-99.833
		c0-13.094-1.85-25.763-5.297-37.764H497v44.43c0,4.142,3.358,7.5,7.5,7.5s7.5-3.358,7.5-7.5v-112v-58.667
		C512,112.485,508.642,109.127,504.5,109.127z M497,167.794h-25.833v-43.667H497V167.794z M362.604,124.127h93.562v43.667h-93.562
		V124.127z M220.829,90.592c0-2.016,1.703-3.719,3.719-3.719h62.903c2.016,0,3.719,1.703,3.719,3.719v18.535h-70.342V90.592H220.829
		z M39.155,93.373c0-3.584,2.916-6.5,6.5-6.5h78.495c3.584,0,6.5,2.916,6.5,6.5v15.754H39.155V93.373z M15,167.794v-43.667h332.604
		v43.667h-18.382c-22.065-15.214-48.786-24.137-77.556-24.137s-55.491,8.923-77.556,24.137H15z M127.71,338.859
		c7.42,15.731,17.746,29.83,30.285,41.602H15v-41.602H127.71z M497,395.461v29.667H15v-29.667h162.092
		c21.473,13.993,47.089,22.137,74.575,22.137s53.102-8.145,74.575-22.137H497z M251.667,402.598
		c-49.928,0-92.937-30.158-111.788-73.211c-0.185-0.679-0.462-1.318-0.819-1.906c-6.028-14.433-9.364-30.26-9.364-46.854
		c0-67.255,54.716-121.971,121.971-121.971s121.971,54.716,121.971,121.971S318.921,402.598,251.667,402.598z M378.061,227.864
		c-7.139-17.038-17.629-32.334-30.638-45.07H497v45.07L378.061,227.864L378.061,227.864z"/>
	<path style="fill:#18191B;" d="M190.756,219.717c-33.586,33.586-33.586,88.235,0,121.821c16.793,16.793,38.852,25.19,60.911,25.19
		s44.118-8.396,60.911-25.19c33.586-33.586,33.586-88.235,0-121.821C278.992,186.13,224.342,186.13,190.756,219.717z
		 M301.971,330.931c-27.738,27.736-72.871,27.737-100.609,0c-27.738-27.738-27.738-72.871,0-100.608
		c13.869-13.869,32.087-20.803,50.304-20.803c18.218,0,36.436,6.935,50.305,20.803C329.709,258.061,329.709,303.194,301.971,330.931
		z"/>
</g>
<g>
</g>
<g>
</g>
<g>
</g>
<g>
</g>
<g>
</g>
<g>
</g>
<g>
</g>
<g>
</g>
<g>
</g>
<g>
</g>
<g>
</g>
<g>
</g>
<g>
</g>
<g>
</g>
<g>
</g>
</svg>
