<svg xmlns="http://www.w3.org/2000/svg" height="591pt" version="1.1" viewBox="1 -15 591.60001 591" width="591pt">
<g id="surface1">
<path d="M 30.621094 163.621094 L 30.621094 561.691406 L 234.757812 561.691406 L 234.757812 306.515625 C 234.757812 272.695312 262.175781 245.277344 296 245.277344 C 329.824219 245.277344 357.242188 272.695312 357.242188 306.515625 L 357.242188 561.691406 L 561.378906 561.691406 L 561.378906 163.621094 Z M 30.621094 163.621094 " style=" stroke:none;fill-rule:nonzero;fill:rgb(96.078431%,68.235294%,27.058824%);fill-opacity:1;" />
<path d="M 561.378906 163.621094 L 30.621094 163.621094 L 0 102.378906 L 0 61.550781 L 592 61.550781 L 592 102.378906 Z M 561.378906 163.621094 " style=" stroke:none;fill-rule:nonzero;fill:rgb(96.078431%,68.235294%,27.058824%);fill-opacity:1;" />
<path d="M 30.621094 0.308594 L 561.378906 0.308594 L 561.378906 61.550781 L 30.621094 61.550781 Z M 30.621094 0.308594 " style=" stroke:none;fill-rule:nonzero;fill:rgb(96.078431%,68.235294%,27.058824%);fill-opacity:1;" />
<path d="M 0 541.277344 L 204.136719 541.277344 L 204.136719 561.691406 L 0 561.691406 Z M 0 541.277344 " style=" stroke:none;fill-rule:nonzero;fill:rgb(96.078431%,68.235294%,27.058824%);fill-opacity:1;" />
<path d="M 387.863281 541.277344 L 592 541.277344 L 592 561.691406 L 387.863281 561.691406 Z M 387.863281 541.277344 " style=" stroke:none;fill-rule:nonzero;fill:rgb(96.078431%,68.235294%,27.058824%);fill-opacity:1;" />
<path d="M 142.898438 459.621094 L 81.65625 459.621094 L 81.65625 367.757812 C 81.65625 350.847656 95.363281 337.136719 112.277344 337.136719 C 129.1875 337.136719 142.898438 350.847656 142.898438 367.757812 Z M 142.898438 459.621094 " style=" stroke:none;fill-rule:nonzero;fill:rgb(98.039216%,73.72549%,37.254902%);fill-opacity:1;" />
<path d="M 510.34375 459.621094 L 449.101562 459.621094 L 449.101562 367.757812 C 449.101562 350.847656 462.8125 337.136719 479.722656 337.136719 C 496.636719 337.136719 510.34375 350.847656 510.34375 367.757812 Z M 510.34375 459.621094 " style=" stroke:none;fill-rule:nonzero;fill:rgb(98.039216%,73.72549%,37.254902%);fill-opacity:1;" />
<path d="M 81.65625 204.449219 L 153.101562 204.449219 L 153.101562 245.277344 L 81.65625 245.277344 Z M 81.65625 204.449219 " style=" stroke:none;fill-rule:nonzero;fill:rgb(98.039216%,73.72549%,37.254902%);fill-opacity:1;" />
<path d="M 438.898438 204.449219 L 510.34375 204.449219 L 510.34375 245.277344 L 438.898438 245.277344 Z M 438.898438 204.449219 " style=" stroke:none;fill-rule:nonzero;fill:rgb(98.039216%,73.72549%,37.254902%);fill-opacity:1;" />
<path d="M 0 61.550781 L 592 61.550781 L 592 102.378906 L 0 102.378906 Z M 0 61.550781 " style=" stroke:none;fill-rule:nonzero;fill:rgb(98.039216%,73.72549%,37.254902%);fill-opacity:1;" />
<path d="M 0 81.964844 L 592 81.964844 L 592 102.378906 L 0 102.378906 Z M 0 81.964844 " style=" stroke:none;fill-rule:nonzero;fill:rgb(94.117647%,61.960784%,14.901961%);fill-opacity:1;" />
<path d="M 285.792969 61.550781 L 306.207031 61.550781 L 306.207031 102.378906 L 285.792969 102.378906 Z M 285.792969 61.550781 " style=" stroke:none;fill-rule:nonzero;fill:rgb(96.078431%,68.235294%,27.058824%);fill-opacity:1;" />
<path d="M 224.550781 61.550781 L 244.964844 61.550781 L 244.964844 102.378906 L 224.550781 102.378906 Z M 224.550781 61.550781 " style=" stroke:none;fill-rule:nonzero;fill:rgb(96.078431%,68.235294%,27.058824%);fill-opacity:1;" />
<path d="M 163.308594 61.550781 L 183.722656 61.550781 L 183.722656 102.378906 L 163.308594 102.378906 Z M 163.308594 61.550781 " style=" stroke:none;fill-rule:nonzero;fill:rgb(96.078431%,68.235294%,27.058824%);fill-opacity:1;" />
<path d="M 102.070312 61.550781 L 122.484375 61.550781 L 122.484375 102.378906 L 102.070312 102.378906 Z M 102.070312 61.550781 " style=" stroke:none;fill-rule:nonzero;fill:rgb(96.078431%,68.235294%,27.058824%);fill-opacity:1;" />
<path d="M 530.757812 61.550781 L 551.171875 61.550781 L 551.171875 102.378906 L 530.757812 102.378906 Z M 530.757812 61.550781 " style=" stroke:none;fill-rule:nonzero;fill:rgb(96.078431%,68.235294%,27.058824%);fill-opacity:1;" />
<path d="M 469.515625 61.550781 L 489.929688 61.550781 L 489.929688 102.378906 L 469.515625 102.378906 Z M 469.515625 61.550781 " style=" stroke:none;fill-rule:nonzero;fill:rgb(96.078431%,68.235294%,27.058824%);fill-opacity:1;" />
<path d="M 408.277344 61.550781 L 428.691406 61.550781 L 428.691406 102.378906 L 408.277344 102.378906 Z M 408.277344 61.550781 " style=" stroke:none;fill-rule:nonzero;fill:rgb(96.078431%,68.235294%,27.058824%);fill-opacity:1;" />
<path d="M 347.035156 61.550781 L 367.449219 61.550781 L 367.449219 102.378906 L 347.035156 102.378906 Z M 347.035156 61.550781 " style=" stroke:none;fill-rule:nonzero;fill:rgb(96.078431%,68.235294%,27.058824%);fill-opacity:1;" />
<path d="M 40.828125 61.550781 L 61.242188 61.550781 L 61.242188 102.378906 L 40.828125 102.378906 Z M 40.828125 61.550781 " style=" stroke:none;fill-rule:nonzero;fill:rgb(96.078431%,68.235294%,27.058824%);fill-opacity:1;" />
<path d="M 10.207031 275.898438 L 204.136719 275.898438 L 204.136719 296.308594 L 10.207031 296.308594 Z M 10.207031 275.898438 " style=" stroke:none;fill-rule:nonzero;fill:rgb(98.039216%,73.72549%,37.254902%);fill-opacity:1;" />
<path d="M 387.863281 275.898438 L 581.792969 275.898438 L 581.792969 296.308594 L 387.863281 296.308594 Z M 387.863281 275.898438 " style=" stroke:none;fill-rule:nonzero;fill:rgb(98.039216%,73.72549%,37.254902%);fill-opacity:1;" />
<path d="M 10.207031 449.414062 L 193.929688 449.414062 L 193.929688 469.828125 L 10.207031 469.828125 Z M 10.207031 449.414062 " style=" stroke:none;fill-rule:nonzero;fill:rgb(98.039216%,73.72549%,37.254902%);fill-opacity:1;" />
<path d="M 398.070312 449.414062 L 581.792969 449.414062 L 581.792969 469.828125 L 398.070312 469.828125 Z M 398.070312 449.414062 " style=" stroke:none;fill-rule:nonzero;fill:rgb(98.039216%,73.72549%,37.254902%);fill-opacity:1;" />
<path d="M 30.621094 163.621094 L 561.378906 163.621094 L 561.378906 184.035156 L 30.621094 184.035156 Z M 30.621094 163.621094 " style=" stroke:none;fill-rule:nonzero;fill:rgb(94.117647%,61.960784%,14.901961%);fill-opacity:1;" />
<path d="M 438.898438 224.863281 L 510.34375 224.863281 L 510.34375 245.277344 L 438.898438 245.277344 Z M 438.898438 224.863281 " style=" stroke:none;fill-rule:nonzero;fill:rgb(90.196078%,54.117647%,0%);fill-opacity:1;" />
<path d="M 81.65625 224.863281 L 153.101562 224.863281 L 153.101562 245.277344 L 81.65625 245.277344 Z M 81.65625 224.863281 " style=" stroke:none;fill-rule:nonzero;fill:rgb(90.196078%,54.117647%,0%);fill-opacity:1;" />
<path d="M 449.101562 429 L 510.34375 429 L 510.34375 449.414062 L 449.101562 449.414062 Z M 449.101562 429 " style=" stroke:none;fill-rule:nonzero;fill:rgb(90.196078%,54.117647%,0%);fill-opacity:1;" />
<path d="M 81.65625 429 L 142.898438 429 L 142.898438 449.414062 L 81.65625 449.414062 Z M 81.65625 429 " style=" stroke:none;fill-rule:nonzero;fill:rgb(90.196078%,54.117647%,0%);fill-opacity:1;" />
<path d="M 30.621094 296.308594 L 193.929688 296.308594 L 193.929688 316.722656 L 30.621094 316.722656 Z M 30.621094 296.308594 " style=" stroke:none;fill-rule:nonzero;fill:rgb(94.117647%,61.960784%,14.901961%);fill-opacity:1;" />
<path d="M 30.621094 469.828125 L 193.929688 469.828125 L 193.929688 490.242188 L 30.621094 490.242188 Z M 30.621094 469.828125 " style=" stroke:none;fill-rule:nonzero;fill:rgb(94.117647%,61.960784%,14.901961%);fill-opacity:1;" />
<path d="M 398.070312 296.308594 L 561.378906 296.308594 L 561.378906 316.722656 L 398.070312 316.722656 Z M 398.070312 296.308594 " style=" stroke:none;fill-rule:nonzero;fill:rgb(94.117647%,61.960784%,14.901961%);fill-opacity:1;" />
<path d="M 398.070312 469.828125 L 561.378906 469.828125 L 561.378906 490.242188 L 398.070312 490.242188 Z M 398.070312 469.828125 " style=" stroke:none;fill-rule:nonzero;fill:rgb(94.117647%,61.960784%,14.901961%);fill-opacity:1;" />
<path d="M 81.65625 0.308594 L 102.070312 0.308594 L 102.070312 30.929688 L 81.65625 30.929688 Z M 81.65625 0.308594 " style=" stroke:none;fill-rule:nonzero;fill:rgb(90.196078%,54.117647%,0%);fill-opacity:1;" />
<path d="M 163.308594 0.308594 L 183.722656 0.308594 L 183.722656 30.929688 L 163.308594 30.929688 Z M 163.308594 0.308594 " style=" stroke:none;fill-rule:nonzero;fill:rgb(90.196078%,54.117647%,0%);fill-opacity:1;" />
<path d="M 244.964844 0.308594 L 265.378906 0.308594 L 265.378906 30.929688 L 244.964844 30.929688 Z M 244.964844 0.308594 " style=" stroke:none;fill-rule:nonzero;fill:rgb(90.196078%,54.117647%,0%);fill-opacity:1;" />
<path d="M 326.621094 0.308594 L 347.035156 0.308594 L 347.035156 30.929688 L 326.621094 30.929688 Z M 326.621094 0.308594 " style=" stroke:none;fill-rule:nonzero;fill:rgb(90.196078%,54.117647%,0%);fill-opacity:1;" />
<path d="M 408.277344 0.308594 L 428.691406 0.308594 L 428.691406 30.929688 L 408.277344 30.929688 Z M 408.277344 0.308594 " style=" stroke:none;fill-rule:nonzero;fill:rgb(90.196078%,54.117647%,0%);fill-opacity:1;" />
<path d="M 489.929688 0.308594 L 510.34375 0.308594 L 510.34375 30.929688 L 489.929688 30.929688 Z M 489.929688 0.308594 " style=" stroke:none;fill-rule:nonzero;fill:rgb(90.196078%,54.117647%,0%);fill-opacity:1;" />
<path d="M 408.277344 561.691406 L 387.863281 561.691406 L 387.863281 306.515625 C 387.863281 255.78125 346.734375 214.65625 296 214.65625 C 245.265625 214.65625 204.136719 255.78125 204.136719 306.515625 L 204.136719 561.691406 L 183.722656 561.691406 L 183.722656 306.515625 C 183.722656 244.507812 233.992188 194.242188 296 194.242188 C 358.007812 194.242188 408.277344 244.507812 408.277344 306.515625 Z M 408.277344 561.691406 " style=" stroke:none;fill-rule:nonzero;fill:rgb(90.196078%,54.117647%,0%);fill-opacity:1;" />
</g>
</svg>