<svg xmlns="http://www.w3.org/2000/svg" height="601pt" version="1.1" viewBox="-56 1 601 601.80002" width="601pt">
<g id="surface1">
<path d="M 184.078125 173.457031 L 306.519531 173.457031 C 351.601562 173.457031 388.148438 210.003906 388.148438 255.085938 L 388.148438 397.933594 L 102.453125 397.933594 L 102.453125 255.085938 C 102.453125 210.003906 139 173.457031 184.078125 173.457031 Z M 184.078125 173.457031 " style=" stroke:none;fill-rule:nonzero;fill:rgb(35.294118%,72.941176%,76.862745%);fill-opacity:1;" />
<path d="M 245.300781 173.457031 C 211.488281 173.457031 184.078125 146.046875 184.078125 112.238281 L 184.078125 61.21875 L 306.519531 61.21875 L 306.519531 112.238281 C 306.519531 146.046875 279.109375 173.457031 245.300781 173.457031 Z M 245.300781 173.457031 " style=" stroke:none;fill-rule:nonzero;fill:rgb(41.176471%,80%,84.313725%);fill-opacity:1;" />
<path d="M 235.097656 91.832031 L 255.503906 91.832031 L 255.503906 122.441406 L 235.097656 122.441406 Z M 235.097656 91.832031 " style=" stroke:none;fill-rule:nonzero;fill:rgb(29.803922%,66.666667%,70.980392%);fill-opacity:1;" />
<path d="M 306.519531 61.21875 L 184.078125 61.21875 L 184.078125 40.8125 C 184.078125 29.542969 193.214844 20.40625 204.488281 20.40625 L 208.375 12.632812 C 212.238281 4.898438 220.136719 0.0117188 228.78125 0 L 261.757812 0 C 270.402344 0.0117188 278.300781 4.898438 282.164062 12.632812 L 286.113281 20.40625 C 297.382812 20.40625 306.519531 29.542969 306.519531 40.8125 Z M 306.519531 61.21875 " style=" stroke:none;fill-rule:nonzero;fill:rgb(35.294118%,72.941176%,76.862745%);fill-opacity:1;" />
<path d="M 82.046875 397.933594 L 408.554688 397.933594 C 431.09375 397.933594 449.367188 416.207031 449.367188 438.746094 C 449.367188 461.285156 431.09375 479.558594 408.554688 479.558594 L 82.046875 479.558594 C 59.503906 479.558594 41.230469 461.285156 41.230469 438.746094 C 41.230469 416.207031 59.503906 397.933594 82.046875 397.933594 Z M 82.046875 397.933594 " style=" stroke:none;fill-rule:nonzero;fill:rgb(35.294118%,72.941176%,76.862745%);fill-opacity:1;" />
<path d="M 184.078125 142.847656 L 173.875 142.847656 C 168.242188 142.847656 163.671875 138.277344 163.671875 132.644531 L 163.671875 71.421875 C 163.671875 65.789062 168.242188 61.21875 173.875 61.21875 L 184.078125 61.21875 Z M 184.078125 142.847656 " style=" stroke:none;fill-rule:nonzero;fill:rgb(35.294118%,72.941176%,76.862745%);fill-opacity:1;" />
<path d="M 316.722656 142.847656 L 306.519531 142.847656 L 306.519531 61.21875 L 316.722656 61.21875 C 322.359375 61.21875 326.925781 65.789062 326.925781 71.421875 L 326.925781 132.644531 C 326.925781 138.277344 322.359375 142.847656 316.722656 142.847656 Z M 316.722656 142.847656 " style=" stroke:none;fill-rule:nonzero;fill:rgb(35.294118%,72.941176%,76.862745%);fill-opacity:1;" />
<path d="M 235.097656 40.8125 L 255.503906 40.8125 L 255.503906 61.21875 L 235.097656 61.21875 Z M 235.097656 40.8125 " style=" stroke:none;fill-rule:nonzero;fill:rgb(29.803922%,66.666667%,70.980392%);fill-opacity:1;" />
<path d="M 20.824219 479.558594 L 469.773438 479.558594 L 469.773438 520.371094 L 20.824219 520.371094 Z M 20.824219 479.558594 " style=" stroke:none;fill-rule:nonzero;fill:rgb(76.470588%,78.823529%,81.960784%);fill-opacity:1;" />
<path d="M 31.027344 520.371094 L 459.570312 520.371094 L 459.570312 591.796875 L 31.027344 591.796875 Z M 31.027344 520.371094 " style=" stroke:none;fill-rule:nonzero;fill:rgb(76.470588%,78.823529%,81.960784%);fill-opacity:1;" />
<path d="M 31.027344 520.371094 L 459.570312 520.371094 L 459.570312 540.78125 L 31.027344 540.78125 Z M 31.027344 520.371094 " style=" stroke:none;fill-rule:nonzero;fill:rgb(72.156863%,74.509804%,76.862745%);fill-opacity:1;" />
<path d="M 275.910156 510.167969 C 275.910156 527.074219 262.207031 540.78125 245.300781 540.78125 C 228.394531 540.78125 214.691406 527.074219 214.691406 510.167969 C 214.691406 493.265625 228.394531 479.558594 245.300781 479.558594 C 262.207031 479.558594 275.910156 493.265625 275.910156 510.167969 Z M 275.910156 510.167969 " style=" stroke:none;fill-rule:nonzero;fill:rgb(81.568627%,84.313725%,87.45098%);fill-opacity:1;" />
<path d="M 296.316406 591.796875 L 194.28125 591.796875 L 209.046875 552.0625 C 212.503906 545.148438 219.570312 540.78125 227.300781 540.78125 L 263.300781 540.78125 C 271.03125 540.78125 278.097656 545.148438 281.554688 552.0625 Z M 296.316406 591.796875 " style=" stroke:none;fill-rule:nonzero;fill:rgb(81.568627%,84.313725%,87.45098%);fill-opacity:1;" />
<path d="M 0.417969 581.59375 L 490.179688 581.59375 L 490.179688 602 L 0.417969 602 Z M 0.417969 581.59375 " style=" stroke:none;fill-rule:nonzero;fill:rgb(81.568627%,84.313725%,87.45098%);fill-opacity:1;" />
<path d="M 61.640625 561.1875 L 82.046875 561.1875 L 82.046875 581.59375 L 61.640625 581.59375 Z M 61.640625 561.1875 " style=" stroke:none;fill-rule:nonzero;fill:rgb(64.313725%,69.019608%,74.901961%);fill-opacity:1;" />
<path d="M 102.453125 561.1875 L 122.859375 561.1875 L 122.859375 581.59375 L 102.453125 581.59375 Z M 102.453125 561.1875 " style=" stroke:none;fill-rule:nonzero;fill:rgb(64.313725%,69.019608%,74.901961%);fill-opacity:1;" />
<path d="M 143.265625 561.1875 L 163.671875 561.1875 L 163.671875 581.59375 L 143.265625 581.59375 Z M 143.265625 561.1875 " style=" stroke:none;fill-rule:nonzero;fill:rgb(64.313725%,69.019608%,74.901961%);fill-opacity:1;" />
<path d="M 326.925781 561.1875 L 347.332031 561.1875 L 347.332031 581.59375 L 326.925781 581.59375 Z M 326.925781 561.1875 " style=" stroke:none;fill-rule:nonzero;fill:rgb(64.313725%,69.019608%,74.901961%);fill-opacity:1;" />
<path d="M 367.742188 561.1875 L 388.148438 561.1875 L 388.148438 581.59375 L 367.742188 581.59375 Z M 367.742188 561.1875 " style=" stroke:none;fill-rule:nonzero;fill:rgb(64.313725%,69.019608%,74.901961%);fill-opacity:1;" />
<path d="M 408.554688 561.1875 L 428.960938 561.1875 L 428.960938 581.59375 L 408.554688 581.59375 Z M 408.554688 561.1875 " style=" stroke:none;fill-rule:nonzero;fill:rgb(64.313725%,69.019608%,74.901961%);fill-opacity:1;" />
<path d="M 245.300781 336.710938 C 273.476562 336.710938 296.316406 313.871094 296.316406 285.695312 L 296.316406 173.457031 L 194.28125 173.457031 L 194.28125 285.695312 C 194.28125 313.871094 217.125 336.710938 245.300781 336.710938 Z M 245.300781 336.710938 " style=" stroke:none;fill-rule:nonzero;fill:rgb(41.176471%,80%,84.313725%);fill-opacity:1;" />
<path d="M 245.300781 397.933594 L 143.265625 397.933594 L 155.96875 359.832031 C 160.566406 346.027344 173.484375 336.710938 188.039062 336.710938 L 245.300781 336.710938 Z M 245.300781 397.933594 " style=" stroke:none;fill-rule:nonzero;fill:rgb(41.176471%,80%,84.313725%);fill-opacity:1;" />
<path d="M 245.300781 397.933594 L 347.332031 397.933594 L 334.628906 359.832031 C 330.03125 346.027344 317.113281 336.710938 302.5625 336.710938 L 245.300781 336.710938 Z M 245.300781 397.933594 " style=" stroke:none;fill-rule:nonzero;fill:rgb(41.176471%,80%,84.313725%);fill-opacity:1;" />
<path d="M 154.539062 310.664062 L 172.804688 301.539062 C 166.820312 289.53125 163.695312 276.296875 163.671875 262.878906 L 163.671875 176.152344 C 156.523438 177.984375 149.65625 180.789062 143.265625 184.484375 L 143.265625 262.898438 C 143.292969 279.476562 147.152344 295.824219 154.539062 310.664062 Z M 154.539062 310.664062 " style=" stroke:none;fill-rule:nonzero;fill:rgb(29.803922%,66.666667%,70.980392%);fill-opacity:1;" />
<path d="M 317.742188 301.542969 L 336.007812 310.664062 C 343.417969 295.824219 347.296875 279.46875 347.332031 262.878906 L 347.332031 184.46875 C 340.945312 180.769531 334.078125 177.964844 326.925781 176.132812 L 326.925781 262.859375 C 326.894531 276.289062 323.75 289.527344 317.742188 301.542969 Z M 317.742188 301.542969 " style=" stroke:none;fill-rule:nonzero;fill:rgb(29.803922%,66.666667%,70.980392%);fill-opacity:1;" />
<path d="M 296.316406 265.289062 L 255.503906 265.289062 L 255.503906 204.066406 L 235.097656 204.066406 L 235.097656 265.289062 L 194.28125 265.289062 L 194.28125 285.695312 L 235.097656 285.695312 L 235.097656 336.710938 L 255.503906 336.710938 L 255.503906 285.695312 L 296.316406 285.695312 Z M 296.316406 265.289062 " style=" stroke:none;fill-rule:nonzero;fill:rgb(29.803922%,66.666667%,70.980392%);fill-opacity:1;" />
<path d="M 194.28125 336.710938 L 214.691406 336.710938 L 214.691406 367.320312 L 194.28125 367.320312 Z M 194.28125 336.710938 " style=" stroke:none;fill-rule:nonzero;fill:rgb(29.803922%,66.666667%,70.980392%);fill-opacity:1;" />
<path d="M 275.910156 336.710938 L 296.316406 336.710938 L 296.316406 367.320312 L 275.910156 367.320312 Z M 275.910156 336.710938 " style=" stroke:none;fill-rule:nonzero;fill:rgb(29.803922%,66.666667%,70.980392%);fill-opacity:1;" />
<path d="M 143.265625 336.710938 L 143.265625 316.304688 C 126.710938 316.339844 112.152344 327.265625 107.492188 343.148438 L 102.453125 359.648438 L 102.453125 397.933594 L 112.09375 397.933594 L 127.0625 348.957031 C 129.140625 341.726562 135.742188 336.738281 143.265625 336.710938 Z M 143.265625 336.710938 " style=" stroke:none;fill-rule:nonzero;fill:rgb(29.803922%,66.666667%,70.980392%);fill-opacity:1;" />
<path d="M 347.332031 316.304688 L 347.332031 336.710938 C 354.863281 336.734375 361.472656 341.722656 363.558594 348.957031 L 377.945312 397.933594 L 388.148438 397.933594 L 388.148438 360.324219 L 383.167969 343.324219 C 378.542969 327.363281 363.953125 316.359375 347.332031 316.304688 Z M 347.332031 316.304688 " style=" stroke:none;fill-rule:nonzero;fill:rgb(29.803922%,66.666667%,70.980392%);fill-opacity:1;" />
<path d="M 102.453125 397.933594 L 82.046875 397.933594 C 82.128906 428.820312 94.871094 458.324219 117.296875 479.558594 L 150.09375 479.558594 C 146.414062 476.5 142.578125 473.628906 138.605469 470.957031 C 115.878906 453.542969 102.523438 426.5625 102.453125 397.933594 Z M 102.453125 397.933594 " style=" stroke:none;fill-rule:nonzero;fill:rgb(29.803922%,66.666667%,70.980392%);fill-opacity:1;" />
<path d="M 388.148438 397.933594 C 386.730469 426.410156 373.472656 453 351.578125 471.261719 C 346.015625 474.792969 341.578125 477.46875 337.996094 479.558594 L 372.6875 479.558594 C 394.609375 457.914062 407.4375 428.71875 408.554688 397.933594 Z M 388.148438 397.933594 " style=" stroke:none;fill-rule:nonzero;fill:rgb(29.803922%,66.666667%,70.980392%);fill-opacity:1;" />
<path d="M 192.242188 466.449219 C 168.246094 451.941406 153.546875 425.972656 153.46875 397.933594 L 133.0625 397.933594 C 133.21875 430.378906 148.992188 460.761719 175.4375 479.558594 L 213.191406 479.558594 L 199.519531 470.816406 Z M 192.242188 466.449219 " style=" stroke:none;fill-rule:nonzero;fill:rgb(29.803922%,66.666667%,70.980392%);fill-opacity:1;" />
<path d="M 357.539062 397.933594 L 337.128906 397.933594 C 337.066406 425.878906 322.460938 451.777344 298.582031 466.292969 L 275.960938 479.558594 L 315.164062 479.558594 C 341.605469 460.761719 357.378906 430.378906 357.539062 397.933594 Z M 357.539062 397.933594 " style=" stroke:none;fill-rule:nonzero;fill:rgb(29.803922%,66.666667%,70.980392%);fill-opacity:1;" />
<path d="M 239.914062 448.949219 L 250.6875 448.949219 C 282.804688 449.015625 312.136719 430.710938 326.191406 401.828125 L 327.761719 397.933594 L 304.90625 397.933594 C 293.46875 416.957031 272.882812 428.578125 250.6875 428.542969 L 239.914062 428.542969 C 217.722656 428.5625 197.152344 416.945312 185.710938 397.933594 L 162.246094 397.933594 L 164.691406 402.492188 C 178.851562 431.058594 208.03125 449.078125 239.914062 448.949219 Z M 239.914062 448.949219 " style=" stroke:none;fill-rule:nonzero;fill:rgb(29.803922%,66.666667%,70.980392%);fill-opacity:1;" />
<path d="M 235.097656 336.710938 L 255.503906 336.710938 L 255.503906 397.933594 L 235.097656 397.933594 Z M 235.097656 336.710938 " style=" stroke:none;fill-rule:nonzero;fill:rgb(29.803922%,66.666667%,70.980392%);fill-opacity:1;" />
</g>
</svg>