<svg xmlns="http://www.w3.org/2000/svg" height="884pt" version="1.1" viewBox="0 0 884.99775 884" width="884pt">
<g id="surface1">
<path d="M 427.753906 516.75 L 457.25 516.75 L 457.25 546.25 L 427.753906 546.25 Z M 427.753906 516.75 " style=" stroke:none;fill-rule:nonzero;fill:rgb(0%,0%,0%);fill-opacity:1;" />
<path d="M 398.253906 575.75 L 427.753906 575.75 L 427.753906 649.496094 L 398.253906 649.496094 Z M 398.253906 575.75 " style=" stroke:none;fill-rule:nonzero;fill:rgb(0%,0%,0%);fill-opacity:1;" />
<path d="M 457.25 575.75 L 486.75 575.75 L 486.75 649.496094 L 457.25 649.496094 Z M 457.25 575.75 " style=" stroke:none;fill-rule:nonzero;fill:rgb(0%,0%,0%);fill-opacity:1;" />
<path d="M 250.753906 560.992188 L 280.253906 560.992188 L 280.253906 590.492188 L 250.753906 590.492188 Z M 250.753906 560.992188 " style=" stroke:none;fill-rule:nonzero;fill:rgb(0%,0%,0%);fill-opacity:1;" />
<path d="M 250.753906 619.996094 L 280.253906 619.996094 L 280.253906 649.496094 L 250.753906 649.496094 Z M 250.753906 619.996094 " style=" stroke:none;fill-rule:nonzero;fill:rgb(0%,0%,0%);fill-opacity:1;" />
<path d="M 604.75 560.992188 L 634.25 560.992188 L 634.25 590.492188 L 604.75 590.492188 Z M 604.75 560.992188 " style=" stroke:none;fill-rule:nonzero;fill:rgb(0%,0%,0%);fill-opacity:1;" />
<path d="M 604.75 619.996094 L 634.25 619.996094 L 634.25 649.496094 L 604.75 649.496094 Z M 604.75 619.996094 " style=" stroke:none;fill-rule:nonzero;fill:rgb(0%,0%,0%);fill-opacity:1;" />
<path d="M 88.5 280.75 L 118 280.75 L 118 310.246094 L 88.5 310.246094 Z M 88.5 280.75 " style=" stroke:none;fill-rule:nonzero;fill:rgb(0%,0%,0%);fill-opacity:1;" />
<path d="M 88.5 413.496094 L 118 413.496094 L 118 472.492188 L 88.5 472.492188 Z M 88.5 413.496094 " style=" stroke:none;fill-rule:nonzero;fill:rgb(0%,0%,0%);fill-opacity:1;" />
<path d="M 88.5 560.992188 L 118 560.992188 L 118 590.492188 L 88.5 590.492188 Z M 88.5 560.992188 " style=" stroke:none;fill-rule:nonzero;fill:rgb(0%,0%,0%);fill-opacity:1;" />
<path d="M 88.5 619.996094 L 118 619.996094 L 118 649.496094 L 88.5 649.496094 Z M 88.5 619.996094 " style=" stroke:none;fill-rule:nonzero;fill:rgb(0%,0%,0%);fill-opacity:1;" />
<path d="M 88.5 752.75 L 118 752.75 L 118 782.246094 L 88.5 782.246094 Z M 88.5 752.75 " style=" stroke:none;fill-rule:nonzero;fill:rgb(0%,0%,0%);fill-opacity:1;" />
<path d="M 88.5 811.746094 L 118 811.746094 L 118 841.246094 L 88.5 841.246094 Z M 88.5 811.746094 " style=" stroke:none;fill-rule:nonzero;fill:rgb(0%,0%,0%);fill-opacity:1;" />
<path d="M 766.996094 280.75 L 796.496094 280.75 L 796.496094 310.246094 L 766.996094 310.246094 Z M 766.996094 280.75 " style=" stroke:none;fill-rule:nonzero;fill:rgb(0%,0%,0%);fill-opacity:1;" />
<path d="M 766.996094 413.496094 L 796.496094 413.496094 L 796.496094 472.492188 L 766.996094 472.492188 Z M 766.996094 413.496094 " style=" stroke:none;fill-rule:nonzero;fill:rgb(0%,0%,0%);fill-opacity:1;" />
<path d="M 766.996094 560.992188 L 796.496094 560.992188 L 796.496094 590.492188 L 766.996094 590.492188 Z M 766.996094 560.992188 " style=" stroke:none;fill-rule:nonzero;fill:rgb(0%,0%,0%);fill-opacity:1;" />
<path d="M 766.996094 619.996094 L 796.496094 619.996094 L 796.496094 649.496094 L 766.996094 649.496094 Z M 766.996094 619.996094 " style=" stroke:none;fill-rule:nonzero;fill:rgb(0%,0%,0%);fill-opacity:1;" />
<path d="M 766.996094 752.75 L 796.496094 752.75 L 796.496094 782.246094 L 766.996094 782.246094 Z M 766.996094 752.75 " style=" stroke:none;fill-rule:nonzero;fill:rgb(0%,0%,0%);fill-opacity:1;" />
<path d="M 766.996094 811.746094 L 796.496094 811.746094 L 796.496094 841.246094 L 766.996094 841.246094 Z M 766.996094 811.746094 " style=" stroke:none;fill-rule:nonzero;fill:rgb(0%,0%,0%);fill-opacity:1;" />
<path d="M 855.496094 251.25 L 870.253906 251.25 L 870.253906 221.75 L 840.753906 221.75 L 840.753906 177.496094 L 855.496094 177.496094 L 855.496094 147.996094 L 840.753906 147.996094 C 840.648438 121.171875 822.46875 97.796875 796.496094 91.085938 L 796.496094 59.496094 L 825.996094 59.496094 L 825.996094 29.996094 L 796.496094 29.996094 L 796.496094 0.5 L 767.007812 0.5 L 767.007812 29.996094 L 737.507812 29.996094 L 737.507812 59.496094 L 767.007812 59.496094 L 767.007812 91.085938 C 741.035156 97.796875 722.855469 121.171875 722.75 147.996094 L 708.007812 147.996094 L 708.007812 177.496094 L 722.75 177.496094 L 722.75 221.75 L 693.25 221.75 L 693.25 251.246094 L 708.007812 251.246094 L 708.007812 354.496094 L 678.5 354.496094 L 678.5 383.992188 L 693.25 383.992188 L 693.25 501.992188 L 663.75 501.992188 C 663.675781 483.308594 651.867188 466.6875 634.25 460.464844 L 634.25 428.246094 L 604.753906 428.246094 L 604.753906 460.464844 C 587.132812 466.6875 575.328125 483.308594 575.253906 501.992188 L 545.753906 501.992188 L 545.753906 383.992188 L 516.253906 383.992188 L 516.253906 457.746094 L 486.753906 457.746094 L 486.753906 428.246094 C 486.753906 424.332031 485.203125 420.582031 482.433594 417.8125 L 458.550781 393.941406 C 472.183594 385.210938 476.160156 367.085938 467.429688 353.453125 C 464.875 349.457031 461.378906 346.132812 457.253906 343.789062 L 457.253906 265.992188 L 427.753906 265.992188 L 427.753906 343.847656 C 413.6875 351.859375 408.78125 369.75 416.792969 383.816406 C 419.140625 387.941406 422.457031 391.4375 426.457031 393.992188 L 402.574219 417.875 C 399.824219 420.625 398.273438 424.351562 398.253906 428.246094 L 398.253906 457.746094 L 368.753906 457.746094 L 368.753906 383.992188 L 339.253906 383.992188 L 339.253906 501.992188 L 309.753906 501.992188 C 309.667969 483.308594 297.863281 466.6875 280.253906 460.453125 L 280.253906 428.242188 L 250.753906 428.242188 L 250.753906 460.453125 C 233.136719 466.6875 221.328125 483.308594 221.25 501.992188 L 191.75 501.992188 L 191.75 383.992188 L 206.5 383.992188 L 206.5 354.492188 L 177 354.492188 L 177 251.246094 L 191.757812 251.246094 L 191.757812 221.746094 L 162.25 221.746094 L 162.25 177.496094 L 177 177.496094 L 177 147.996094 L 162.25 147.996094 C 162.152344 121.171875 143.972656 97.796875 118 91.085938 L 118 59.496094 L 147.5 59.496094 L 147.5 29.996094 L 118 29.996094 L 118 0.5 L 88.5 0.5 L 88.5 29.996094 L 59 29.996094 L 59 59.496094 L 88.5 59.496094 L 88.5 91.085938 C 62.53125 97.796875 44.351562 121.171875 44.246094 147.996094 L 29.5 147.996094 L 29.5 177.496094 L 44.246094 177.496094 L 44.246094 221.75 L 14.753906 221.75 L 14.753906 251.246094 L 29.5 251.246094 L 29.5 354.496094 L 0 354.496094 L 0 383.992188 L 14.753906 383.992188 L 14.753906 501.992188 L 0 501.992188 L 0 531.492188 L 14.753906 531.492188 L 14.753906 678.996094 L 0 678.996094 L 0 708.5 L 14.753906 708.5 L 14.753906 855.992188 L 0 855.992188 L 0 885.492188 L 884.996094 885.492188 L 884.996094 856 L 870.246094 856 L 870.246094 708.5 L 884.996094 708.5 L 884.996094 678.996094 L 870.246094 678.996094 L 870.246094 531.492188 L 884.996094 531.492188 L 884.996094 501.992188 L 870.246094 501.992188 L 870.246094 383.996094 L 884.996094 383.996094 L 884.996094 354.496094 L 855.496094 354.496094 Z M 781.75 118.496094 C 798.042969 118.496094 811.253906 131.703125 811.253906 147.996094 L 752.25 147.996094 C 752.25 131.703125 765.460938 118.496094 781.75 118.496094 Z M 752.25 177.496094 L 811.253906 177.496094 L 811.253906 221.75 L 752.25 221.75 Z M 737.496094 251.25 L 825.996094 251.25 L 825.996094 354.496094 L 817.355469 354.496094 C 797.417969 335.503906 766.078125 335.503906 746.148438 354.496094 L 737.496094 354.496094 Z M 590 531.492188 C 598.144531 531.492188 604.75 524.890625 604.75 516.75 L 604.75 501.992188 C 604.75 493.851562 611.351562 487.25 619.5 487.25 C 627.648438 487.25 634.25 493.851562 634.25 501.992188 L 634.25 516.75 C 634.25 524.890625 640.851562 531.492188 649 531.492188 L 693.25 531.492188 L 693.25 678.996094 L 545.753906 678.996094 L 545.753906 531.492188 Z M 413 487.25 C 421.152344 487.25 427.753906 480.644531 427.753906 472.492188 L 427.753906 434.351562 L 442.5 419.601562 L 457.253906 434.351562 L 457.253906 472.492188 C 457.253906 480.644531 463.855469 487.25 472 487.25 L 516.253906 487.25 L 516.253906 678.996094 L 368.753906 678.996094 L 368.753906 487.25 Z M 236.003906 531.492188 C 244.144531 531.492188 250.753906 524.890625 250.753906 516.75 L 250.753906 501.992188 C 250.753906 493.851562 257.355469 487.25 265.503906 487.25 C 273.644531 487.25 280.253906 493.851562 280.253906 501.992188 L 280.253906 516.75 C 280.253906 524.890625 286.855469 531.492188 295.003906 531.492188 L 339.253906 531.492188 L 339.253906 678.996094 L 191.757812 678.996094 L 191.757812 531.492188 Z M 103.246094 118.496094 C 119.542969 118.496094 132.75 131.703125 132.75 147.996094 L 73.746094 147.996094 C 73.746094 131.703125 86.953125 118.496094 103.246094 118.496094 Z M 73.746094 177.496094 L 132.75 177.496094 L 132.75 221.75 L 73.746094 221.75 Z M 59 251.25 L 147.5 251.25 L 147.5 354.496094 L 138.851562 354.496094 C 118.914062 335.503906 87.585938 335.503906 67.644531 354.496094 L 59 354.496094 Z M 44.246094 383.996094 L 73.746094 383.996094 C 77.660156 383.992188 81.410156 382.441406 84.179688 379.675781 L 88.5 375.351562 C 96.765625 367.492188 109.734375 367.492188 118 375.351562 L 122.320312 379.675781 C 125.085938 382.441406 128.839844 383.992188 132.75 383.996094 L 162.25 383.996094 L 162.25 501.992188 L 44.246094 501.992188 Z M 44.246094 531.492188 L 162.25 531.492188 L 162.25 678.996094 L 44.246094 678.996094 Z M 44.246094 708.5 L 162.25 708.5 L 162.25 856 L 44.246094 856 Z M 191.75 708.5 L 339.253906 708.5 L 339.253906 856 L 309.753906 856 L 309.753906 797 C 309.753906 772.5625 289.941406 752.75 265.496094 752.75 C 241.0625 752.75 221.25 772.5625 221.25 797 L 221.25 856 L 191.75 856 Z M 250.753906 856 L 250.753906 797 C 250.753906 788.847656 257.355469 782.246094 265.503906 782.246094 C 273.644531 782.246094 280.253906 788.847656 280.253906 797 L 280.253906 856 Z M 368.753906 708.5 L 516.25 708.5 L 516.25 856 L 486.75 856 L 486.75 782.246094 C 486.75 757.808594 466.9375 738 442.5 738 C 418.054688 738 398.25 757.808594 398.25 782.246094 L 398.25 856 L 368.753906 856 Z M 427.753906 856 L 427.753906 782.246094 C 427.753906 774.101562 434.355469 767.5 442.5 767.5 C 450.652344 767.5 457.253906 774.101562 457.253906 782.246094 L 457.253906 856 Z M 545.75 708.5 L 693.25 708.5 L 693.25 856 L 663.75 856 L 663.75 797 C 663.75 772.5625 643.9375 752.75 619.5 752.75 C 595.0625 752.75 575.25 772.5625 575.25 797 L 575.25 856 L 545.75 856 Z M 604.75 856 L 604.75 797 C 604.75 788.847656 611.351562 782.246094 619.5 782.246094 C 627.648438 782.246094 634.25 788.847656 634.25 797 L 634.25 856 Z M 840.753906 856 L 722.75 856 L 722.75 708.5 L 840.753906 708.5 Z M 840.753906 678.996094 L 722.75 678.996094 L 722.75 531.492188 L 840.753906 531.492188 Z M 840.753906 501.992188 L 722.75 501.992188 L 722.75 383.996094 L 752.25 383.996094 C 756.15625 383.992188 759.910156 382.441406 762.675781 379.675781 L 766.996094 375.351562 C 775.261719 367.492188 788.242188 367.492188 796.496094 375.351562 L 800.820312 379.675781 C 803.589844 382.441406 807.335938 383.992188 811.253906 383.996094 L 840.753906 383.996094 Z M 840.753906 501.992188 " style=" stroke:none;fill-rule:nonzero;fill:rgb(0%,0%,0%);fill-opacity:1;" />
</g>
</svg>