<svg viewBox="0 0 480 480" xmlns="http://www.w3.org/2000/svg"><path d="m224 185.246094v254.753906h32v-254.753906c-10.652344-.789063-21.347656-.789063-32 0zm0 0" fill="#82560d"/><path d="m192 440c-8.835938 0-16 7.164062-16 16s7.164062 16 16 16h96c8.835938 0 16-7.164062 16-16s-7.164062-16-16-16zm0 0" fill="#82560d"/><path d="m8 168 36.902344-5.679688c42.179687-6.488281 84.921875 7.503907 115.097656 37.679688l80-176zm0 0" fill="#ffdfab"/><path d="m160 200c20.453125-8.164062 42.039062-13.136719 64-14.753906 10.652344-.789063 21.347656-.789063 32 0 21.960938 1.617187 43.546875 6.589844 64 14.753906l-80-176zm0 0" fill="#ffdfab"/><path d="m320 200c30.175781-30.175781 72.917969-44.167969 115.097656-37.679688l36.902344 5.679688-232-144zm0 0" fill="#ffdfab"/><g fill="#82560d"><path d="m120 416v-96h-80v96zm0 0"/><path d="m40 416v-24h-32v48h32zm0 0"/><path d="m120 416v24h32v-48h-32zm0 0"/><path d="m40 440h-16v32h112v-32zm0 0"/><path d="m440 416v-96h-80v96zm0 0"/><path d="m360 416v-24h-32v48h32zm0 0"/><path d="m440 416v24h32v-48h-32zm0 0"/><path d="m360 440h-16v32h112v-32zm0 0"/></g><path d="m317.03125 207.433594c2.972656 1.183594 6.363281.484375 8.625-1.777344 28.417969-28.296875 68.566406-41.441406 108.214844-35.433594l36.914062 5.679688c3.753906.578125 7.398438-1.570313 8.714844-5.132813 1.316406-3.566406-.054688-7.566406-3.285156-9.570312l-228.214844-141.648438v-19.550781h-16v19.550781l-228.214844 141.648438c-3.230468 2.003906-4.601562 6.003906-3.285156 9.570312 1.316406 3.5625 4.960938 5.710938 8.714844 5.132813l36.914062-5.679688c39.648438-6.003906 79.796875 7.140625 108.214844 35.433594 2.261719 2.261719 5.652344 2.960938 8.625 1.777344 17.007812-6.800782 34.839844-11.320313 53.03125-13.449219v238.015625h-24c-13.253906 0-24 10.746094-24 24s10.746094 24 24 24h96c13.253906 0 24-10.746094 24-24s-10.746094-24-24-24h-24v-238.015625c18.191406 2.128906 36.023438 6.648437 53.03125 13.449219zm-12-20.960938c-42.359375-13.269531-87.765625-13.269531-130.128906 0l65.097656-143.136718zm17.664062.191406-64.496093-141.953124 176.3125 109.441406c-40.191407-5.566406-80.847657 6.261718-111.785157 32.511718zm-277.207031-32.511718 176.3125-109.441406-64.527343 141.953124c-30.9375-26.25-71.59375-38.078124-111.785157-32.511718zm250.511719 301.847656c0 4.417969-3.582031 8-8 8h-96c-4.417969 0-8-3.582031-8-8s3.582031-8 8-8h96c4.417969 0 8 3.582031 8 8zm-48-24h-16v-239.289062c5.332031-.207032 10.667969-.207032 16 0zm0 0"/><path d="m152 384h-24v-64c0-4.417969-3.582031-8-8-8h-80c-4.417969 0-8 3.582031-8 8v64h-24c-4.417969 0-8 3.582031-8 8v48c0 4.417969 3.582031 8 8 8h8v24c0 4.417969 3.582031 8 8 8h112c4.417969 0 8-3.582031 8-8v-24h8c4.417969 0 8-3.582031 8-8v-48c0-4.417969-3.582031-8-8-8zm-104 48v-8h64v8zm0-104h64v80h-64zm-32 72h16v32h-16zm112 64h-96v-16h96zm16-32h-16v-32h16zm0 0"/><path d="m472 384h-24v-64c0-4.417969-3.582031-8-8-8h-80c-4.417969 0-8 3.582031-8 8v64h-24c-4.417969 0-8 3.582031-8 8v48c0 4.417969 3.582031 8 8 8h8v24c0 4.417969 3.582031 8 8 8h112c4.417969 0 8-3.582031 8-8v-24h8c4.417969 0 8-3.582031 8-8v-48c0-4.417969-3.582031-8-8-8zm-104 48v-8h64v8zm0-104h64v80h-64zm-32 72h16v32h-16zm112 64h-96v-16h96zm16-32h-16v-32h16zm0 0"/></svg>